<?xml version="1.0" standalone="no"?>
<!DOCTYPE svg PUBLIC "-//W3C//DTD SVG 1.1//EN" "http://www.w3.org/Graphics/SVG/1.1/DTD/svg11.dtd">
<svg width="78.0mm" height="110.0mm"
 viewBox="0 0 78.0 110.0"
 xmlns="http://www.w3.org/2000/svg" version="1.1"
 xmlns:xlink="http://www.w3.org/1999/xlink">
<desc>Output from Flights of Ideas SVG Sketchup Plugin</desc>

<g id="text_annotations" font-size="10" stroke="rgb(255,0,0)" stroke-width="0">
</g>
  <path id="face0-cut"
 style="fill:none;stroke:rgb(0,0,255);stroke-width:0;stroke-miterlimit:4;stroke-dasharray:none;stroke-linejoin:round;stroke-linecap:round"
        d="M 68.0,96.0 L 68.0,14.0 L 67.8637033051563,12.9647238195899 L 67.4641016151378,12.0 L 66.8284271247462,11.1715728752538 L 66.0,10.5358983848623 L 65.0352761804101,10.1362966948437 L 64.0,10.0 L 14.0,10.0 L 12.9647238195899,10.1362966948437 L 12.0,10.5358983848622 L 11.1715728752538,11.1715728752539 L 10.5358983848622,12.0 L 10.1362966948438,12.9647238195899 L 10.0,14.0 L 10.0,96.0 L 10.1362966948437,97.0352761804102 L 10.5358983848623,98.0000000000001 L 11.1715728752538,98.8284271247463 L 12.0,99.4641016151377 L 12.9647238195899,99.8637033051562 L 14.0,100.0 L 64.0,100.0 L 65.0352761804101,99.8637033051563 L 66.0,99.4641016151378 L 66.8284271247462,98.8284271247462 L 67.4641016151378,98.0 L 67.8637033051563,97.0352761804101 L 68.0,96.0 M 63.3882285676538,16.4488887394336 L 63.0,16.5 L 62.6117714323462,16.4488887394336 L 62.25,16.2990381056767 L 61.9393398282202,16.0606601717798 L 61.7009618943234,15.75 L 61.5511112605664,15.3882285676538 L 61.5,15.0 L 61.5511112605664,14.6117714323462 L 61.7009618943234,14.25 L 61.9393398282202,13.9393398282202 L 62.25,13.7009618943233 L 62.6117714323462,13.5511112605664 L 63.0,13.5 L 63.3882285676538,13.5511112605664 L 63.75,13.7009618943233 L 64.0606601717798,13.9393398282202 L 64.2990381056767,14.25 L 64.4488887394336,14.6117714323462 L 64.5,15.0 L 64.4488887394336,15.3882285676538 L 64.2990381056767,15.75 L 64.0606601717798,16.0606601717798 L 63.75,16.2990381056767 L 63.3882285676538,16.4488887394336 M 63.3882285676538,96.4488887394336 L 63.0,96.5 L 62.6117714323462,96.4488887394336 L 62.25,96.2990381056767 L 61.9393398282202,96.0606601717799 L 61.7009618943234,95.75 L 61.5511112605664,95.3882285676538 L 61.5,95.0 L 61.5511112605664,94.6117714323462 L 61.7009618943234,94.25 L 61.9393398282202,93.9393398282202 L 62.25,93.7009618943234 L 62.6117714323462,93.5511112605664 L 63.0,93.5 L 63.3882285676538,93.5511112605664 L 63.75,93.7009618943234 L 64.0606601717798,93.9393398282202 L 64.2990381056767,94.25 L 64.4488887394336,94.6117714323462 L 64.5,95.0 L 64.4488887394336,95.3882285676538 L 64.2990381056767,95.75 L 64.0606601717798,96.0606601717798 L 63.75,96.2990381056767 L 63.3882285676538,96.4488887394336 M 15.3882285676538,16.4488887394336 L 15.0,16.5 L 14.6117714323462,16.4488887394336 L 14.25,16.2990381056767 L 13.9393398282202,16.0606601717798 L 13.7009618943234,15.75 L 13.5511112605664,15.3882285676538 L 13.5,15.0 L 13.5511112605664,14.6117714323462 L 13.7009618943233,14.25 L 13.9393398282202,13.9393398282202 L 14.25,13.7009618943233 L 14.6117714323462,13.5511112605664 L 15.0,13.5 L 15.3882285676538,13.5511112605664 L 15.75,13.7009618943234 L 16.0606601717798,13.9393398282202 L 16.2990381056767,14.25 L 16.4488887394336,14.6117714323462 L 16.5,15.0 L 16.4488887394336,15.3882285676538 L 16.2990381056767,15.75 L 16.0606601717798,16.0606601717798 L 15.75,16.2990381056767 L 15.3882285676538,16.4488887394336 M 15.3882285676538,96.4488887394325 L 15.0,96.4999999999996 L 14.6117714323462,96.4488887394334 L 14.25,96.2990381056769 L 13.9393398282202,96.060660171779 L 13.7009618943234,95.7500000000003 L 13.5511112605664,95.3882285676533 L 13.5,94.9999999999999 L 13.5511112605664,94.6117714323463 L 13.7009618943234,94.25 L 13.9393398282202,93.9393398282203 L 14.25,93.7009618943235 L 14.6117714323462,93.5511112605666 L 15.0,93.5000000000001 L 15.3882285676538,93.5511112605665 L 15.75,93.7009618943232 L 16.0606601717798,93.9393398282204 L 16.2990381056767,94.2499999999999 L 16.4488887394336,94.6117714323463 L 16.5,95.0000000000003 L 16.4488887394336,95.3882285676541 L 16.2990381056767,95.75 L 16.0606601717798,96.0606601717727 L 15.75,96.2990381056773 L 15.3882285676538,96.4488887394325 "
  />
</svg>
